{
	"asset" : {
		"generator" : "FME 2019.1.1.0",
		"version" : "2.0"
	},
	"images" : [
		{
			"uri" : "textures/boeun0413_texture.jpg"
		}
	],
	"samplers" : [
		{
			"wrapS" : 10497,
			"wrapT" : 10497
		}
	],
	"textures" : [
		{
			"source" : 0,
			"sampler" : 0
		}
	],
	"materials" : [
		{
			"name" : "texture",
			"pbrMetallicRoughness" : {
				"baseColorTexture" : {
					"index" : 0,
					"texCoord" : 0
				},
				"roughnessFactor" : 0.30000000000000004,
				"metallicFactor" : 0.5
			}
		},
		{
			"name" : "default_material",
			"pbrMetallicRoughness" : {
				"baseColorFactor" : [ 0.8, 0.8, 0.8, 1 ],
				"roughnessFactor" : 0.30000000000000004,
				"metallicFactor" : 0.5
			}
		}
	],
	"meshes" : [
		{
			"primitives" : [
				{
					"attributes" : {
						"POSITION" : 0,
						"TEXCOORD_0" : 1
					},
					"indices" : 2,
					"material" : 0,
					"mode" : 4
				}
			]
		}
	],
	"nodes" : [
		{
			"matrix" : [ 1, 0, 0, 0, 0, 0, -1, 0, 0, 1, 0, 0, 0, 0, 0, 1 ],
			"mesh" : 0
		}
	],
	"scenes" : [
		{
			"nodes" : [ 0 ]
		}
	],
	"scene" : 0,
	"accessors" : [
		{
			"bufferView" : 0,
			"byteOffset" : 0,
			"componentType" : 5126,
			"count" : 739938,
			"type" : "VEC3",
			"min" : [ -164.69200134277344, -275.3699951171875, -117.69100189208984 ],
			"max" : [ 243.33200073242188, 288.2380065917969, -49.56489944458008 ]
		},
		{
			"bufferView" : 1,
			"byteOffset" : 0,
			"componentType" : 5126,
			"count" : 739938,
			"type" : "VEC2",
			"min" : [ 0.00013976100308354944, 0.00013899999612476677 ],
			"max" : [ 0.9998610019683838, 0.9998602271080017 ]
		},
		{
			"bufferView" : 2,
			"byteOffset" : 0,
			"componentType" : 5125,
			"count" : 2999997,
			"type" : "SCALAR",
			"min" : [ 0 ],
			"max" : [ 739937 ]
		}
	],
	"bufferViews" : [
		{
			"buffer" : 0,
			"byteOffset" : 0,
			"byteLength" : 8879256,
			"target" : 34962
		},
		{
			"buffer" : 0,
			"byteOffset" : 8879256,
			"byteLength" : 5919504,
			"target" : 34962
		},
		{
			"buffer" : 0,
			"byteOffset" : 14798760,
			"byteLength" : 11999988,
			"target" : 34963
		}
	],
	"buffers" : [
		{
			"uri" : "boeun0413_simplified_3d_mesh.bin",
			"byteLength" : 26798748
		}
	]
}